<?xml version="1.0" standalone="no"?>
<!DOCTYPE svg PUBLIC "-//W3C//DTD SVG 20010904//EN"
 "http://www.w3.org/TR/2001/REC-SVG-20010904/DTD/svg10.dtd">
<svg version="1.0" xmlns="http://www.w3.org/2000/svg"
 width="4096.000000pt" height="4096.000000pt" viewBox="0 0 4096.000000 4096.000000"
 preserveAspectRatio="xMidYMid meet">

<g transform="translate(0.000000,4096.000000) scale(0.100000,-0.100000)"
fill="#000000" stroke="none">
<path d="M11247 35253 c-4 -3 -7 -345 -7 -760 l0 -753 6698 -2 6697 -3 80 -22
c303 -85 534 -319 605 -613 20 -85 20 -97 20 -4265 0 -4549 4 -4232 -56 -4381
-45 -114 -93 -185 -188 -280 -106 -105 -190 -159 -326 -206 l-95 -33 -6715 -5
-6715 -5 0 -9110 0 -9110 10748 -3 10747 -2 0 12485 0 12485 -1874 0 c-1631 0
-1885 2 -1961 15 -325 57 -579 293 -666 620 -18 67 -22 116 -25 295 -4 205
-34 3374 -34 3568 l0 92 -8463 0 c-4655 0 -8467 -3 -8470 -7z m10376 -14805
c18 -72 2787 -11859 2787 -11863 0 -3 -492 -5 -1092 -5 l-1093 0 -339 1493
c-187 820 -343 1507 -348 1525 l-9 32 -1294 0 c-712 0 -1295 -2 -1295 -5 0 -7
-631 -3008 -636 -3027 -5 -17 -64 -18 -1055 -18 -710 0 -1049 3 -1049 10 0 11
2736 11831 2746 11863 5 16 78 17 1339 17 l1333 0 5 -22z m6047 -7363 l0
-4505 -1020 0 -1020 0 0 4505 0 4505 1020 0 1020 0 0 -4505z"/>
<path d="M20185 18448 c-6 -19 -65 -348 -150 -843 -180 -1045 -174 -1015 -520
-2648 -152 -720 -275 -1310 -273 -1313 3 -2 453 -3 1000 -2 l995 3 -323 1450
c-334 1498 -413 1875 -584 2785 -55 294 -103 545 -105 558 -6 23 -33 30 -40
10z"/>
<path d="M29865 33383 c3 -362 8 -745 11 -850 l6 -193 840 0 840 0 -844 850
c-463 467 -846 850 -850 850 -4 0 -5 -296 -3 -657z"/>
<path d="M8220 28835 l0 -3235 7725 0 7725 0 0 3235 0 3235 -7725 0 -7725 0 0
-3235z m8092 15 c301 -971 552 -1780 557 -1798 l9 -32 -435 2 -435 3 -119 395
c-66 217 -129 425 -140 463 l-20 67 -519 0 -520 0 -5 -22 c-3 -13 -61 -221
-129 -463 l-123 -440 -416 -3 c-229 -1 -417 1 -417 5 -1 5 246 815 547 1801
l548 1792 534 -2 535 -3 548 -1765z m1868 -30 l0 -1800 -405 0 -405 0 0 1800
0 1800 405 0 405 0 0 -1800z"/>
<path d="M15185 30008 c-2 -7 -34 -141 -70 -298 -36 -157 -119 -479 -185 -715
-66 -237 -120 -434 -120 -438 0 -4 180 -7 401 -7 l401 0 -6 23 c-3 12 -64 222
-136 467 -71 245 -160 565 -197 712 -38 148 -72 268 -76 268 -4 0 -10 -6 -12
-12z"/>
</g>
</svg>
